<svg width="30" height="26" viewBox="0 0 30 26" fill="none" xmlns="http://www.w3.org/2000/svg">
<path d="M3.86634 13.0661L15 24.1998L26.1337 13.0661C27.3714 11.8285 28.0667 10.1498 28.0667 8.39947C28.0667 4.75457 25.1119 1.7998 21.467 1.7998C19.7167 1.7998 18.038 2.49512 16.8004 3.7328L15 5.53314L13.1997 3.7328C11.962 2.49512 10.2834 1.7998 8.53301 1.7998C4.88812 1.7998 1.93335 4.75457 1.93335 8.39947C1.93335 10.1498 2.62867 11.8285 3.86634 13.0661Z" fill="white"/>
<path d="M15 24.1998L14.2929 24.9069C14.4804 25.0944 14.7348 25.1998 15 25.1998C15.2652 25.1998 15.5196 25.0944 15.7071 24.9069L15 24.1998ZM3.86634 13.0661L3.15924 13.7732L3.15924 13.7732L3.86634 13.0661ZM13.1997 3.7328L12.4926 4.43991L13.1997 3.7328ZM15 5.53314L14.2929 6.24024C14.6834 6.63077 15.3166 6.63077 15.7071 6.24024L15 5.53314ZM16.8004 3.7328L16.0932 3.02569V3.02569L16.8004 3.7328ZM15.7071 23.4927L4.57345 12.359L3.15924 13.7732L14.2929 24.9069L15.7071 23.4927ZM25.4266 12.359L14.2929 23.4927L15.7071 24.9069L26.8408 13.7732L25.4266 12.359ZM12.4926 4.43991L14.2929 6.24024L15.7071 4.82603L13.9068 3.02569L12.4926 4.43991ZM15.7071 6.24024L17.5075 4.43991L16.0932 3.02569L14.2929 4.82603L15.7071 6.24024ZM21.467 0.799805C19.4515 0.799805 17.5185 1.60048 16.0932 3.02569L17.5075 4.43991C18.5576 3.38977 19.9819 2.7998 21.467 2.7998V0.799805ZM27.0667 8.39947C27.0667 9.88459 26.4767 11.3089 25.4266 12.359L26.8408 13.7732C28.266 12.348 29.0667 10.415 29.0667 8.39947H27.0667ZM29.0667 8.39947C29.0667 4.20229 25.6642 0.799805 21.467 0.799805V2.7998C24.5596 2.7998 27.0667 5.30686 27.0667 8.39947H29.0667ZM8.53301 2.7998C10.0181 2.7998 11.4424 3.38977 12.4926 4.43991L13.9068 3.0257C12.4816 1.60048 10.5486 0.799805 8.53301 0.799805V2.7998ZM2.93335 8.39947C2.93335 5.30686 5.4404 2.7998 8.53301 2.7998V0.799805C4.33583 0.799805 0.93335 4.20229 0.93335 8.39947H2.93335ZM4.57345 12.359C3.52331 11.3089 2.93335 9.88459 2.93335 8.39947H0.93335C0.93335 10.415 1.73402 12.348 3.15924 13.7732L4.57345 12.359Z" fill="white"/>
</svg>
