<svg width="11" height="15" viewBox="0 0 11 15" fill="none" xmlns="http://www.w3.org/2000/svg">
<path d="M10.5 14.5L10.1877 14.8904C10.3377 15.0105 10.5434 15.0339 10.7166 14.9507C10.8898 14.8674 11 14.6922 11 14.5H10.5ZM10.5 0.500011H11V1.10865e-05L10.5 1.05798e-05L10.5 0.500011ZM0.5 0.5L0.500001 0L0 -5.36442e-07V0.5H0.5ZM0.5 14.5H0C0 14.6922 0.110173 14.8674 0.283406 14.9507C0.456638 15.0339 0.662262 15.0105 0.812347 14.8904L0.5 14.5ZM5.5 10.5L5.81235 10.1096C5.62974 9.96349 5.37026 9.96349 5.18765 10.1096L5.5 10.5ZM11 14.5V0.500011H10V14.5H11ZM0 0.5V14.5H1V0.5H0ZM0.812347 14.8904L5.81235 10.8904L5.18765 10.1096L0.187653 14.1096L0.812347 14.8904ZM5.18765 10.8904L10.1877 14.8904L10.8123 14.1096L5.81235 10.1096L5.18765 10.8904ZM10.5 1.05798e-05L0.500001 0L0.499999 1L10.5 1.00001L10.5 1.05798e-05Z" fill="#343232"/>
</svg>
